# xmcd
#
# Track frame offsets: 
#        150
#        14058
#        35116
#        48129
#        58610
#        72262
#        82319
#        95389
#        112150
#        123857
#        133164
#        150992
#        170774
#        180115
#
# Disc length: 2521 seconds
#
# Revision: 1
# Processed by: cddbd v1.5.2PL0 Copyright (c) Steve Scherf et al.
# Submitted via: ExactAudioCopyFreeDBPlugin 1.0
#
DISCID=bf09d70e
DTITLE=Alina Orlova - Mutabor
DYEAR=2010
DGENRE=Folk
TTITLE0=Širdis
TTITLE1=Šilkas
TTITLE2=Lichoradka
TTITLE3=Stars
TTITLE4=Vaikelis
TTITLE5=Bobby
TTITLE6=Čudesa
TTITLE7=Anyway
TTITLE8=Kibirkštėlė
TTITLE9=Amerika
TTITLE10=Ajajai
TTITLE11=Čia
TTITLE12=Fireflies
TTITLE13=Forewa
EXTD=
EXTT0=
EXTT1=
EXTT2=
EXTT3=
EXTT4=
EXTT5=
EXTT6=
EXTT7=
EXTT8=
EXTT9=
EXTT10=
EXTT11=
EXTT12=
EXTT13=
PLAYORDER=
